# xmcd
#
# Track frame offsets:
# 182
# 24485
# 39765
# 53145
# 71367
# 84967
# 107567
# 127200
# 146087
# 160390
#
# Disc length: 2439 seconds
#
#
# Revision: 0
# Processed by: cddbd v1.5.1PL0 Copyright (c) Steve Scherf et al.
# Submitted via: FreeRIP 2.931 
#
DISCID=7f09850a
DTITLE=Danny Rivera - Alborada
DYEAR=1900
DGENRE=Folk
TTITLE0=Allegoria
TTITLE1=Tu Vives En Mi Pensamiento
TTITLE2=Guaracha Del Ruiseñor
TTITLE3=Piensa
TTITLE4=El Día Del Hombre
TTITLE5=Jesús, María y José
TTITLE6=La Reurrección Dle Día
TTITLE7=Tanta Vanidad
TTITLE8=Villancico Yaucano
TTITLE9=Huracán
EXTD=
EXTT0=
EXTT1=
EXTT2=
EXTT3=
EXTT4=
EXTT5=
EXTT6=
EXTT7=
EXTT8=
EXTT9=
PLAYORDER=
